# xmcd
#
# Track frame offsets: 
#        182
#        13765
#        30097
#        44067
#        58137
#        72897
#        85750
#        101270
#        115025
#        130020
#        143372
#        158372
#
# Disc length: 2308 seconds
#
# Revision: 3
# Processed by: cddbd v1.5.1PL0 Copyright (c) Steve Scherf et al.
# Submitted via: ExactAudioCopy v0.95a4
#
DISCID=8809020c
DTITLE=Mahalia Jackson - Christmas With Mahalia Jackson
DYEAR=1995
DGENRE=X-Mas
TTITLE0=Silent Night, Holy Night
TTITLE1=Hark! The Herald Angels Sing
TTITLE2=Walking To Jerusalem
TTITLE3=Go Tell It On The Mountain
TTITLE4=I Can Put My Trust In Jesus
TTITLE5=God Spoke To Me
TTITLE6=His Eye Is On The Sparrow
TTITLE7=The Lord's Prayer
TTITLE8=Come To Jesus
TTITLE9=He's My Light
TTITLE10=City Called Heaven
TTITLE11=Bless This House
EXTD=
EXTT0=
EXTT1=
EXTT2=
EXTT3=
EXTT4=
EXTT5=
EXTT6=
EXTT7=
EXTT8=
EXTT9=
EXTT10=
EXTT11=
PLAYORDER=
